<?xml version="1.0" encoding="UTF-8" standalone="no"?><!DOCTYPE svg PUBLIC "-//W3C//DTD SVG 1.1//EN" "http://www.w3.org/Graphics/SVG/1.1/DTD/svg11.dtd"><svg width="100%" height="100%" viewBox="0 0 319 245" version="1.1" xmlns="http://www.w3.org/2000/svg" xmlns:xlink="http://www.w3.org/1999/xlink" xml:space="preserve" xmlns:serif="http://www.serif.com/" style="fill-rule:evenodd;clip-rule:evenodd;stroke-linejoin:round;stroke-miterlimit:2;"><g id="Layer-1" serif:id="Layer 1"><path d="M6.116,0c-3.37,0.002 -6.116,2.733 -6.116,6.088c3.079,87.375 72.26,157.975 159.28,163.743c3.808,0.251 7.645,0.087 11.517,0.087c12.369,0 25.223,-2.166 36.831,-4.707c37.584,-8.224 65.421,-41.448 65.421,-81.619c0,-2.764 -0.138,-5.498 -0.4,-8.195c-0.492,-5.005 -1.432,-9.88 -2.763,-14.589c-9.96,-35.091 -42.351,-60.808 -80.775,-60.808c-38.428,0 -70.816,25.717 -80.776,60.808c6.882,24.205 24.435,43.938 47.278,53.851c-7.621,-8.142 -12.289,-19.061 -12.289,-31.067c0,-25.18 20.5,-45.596 45.787,-45.596c25.285,0 45.784,20.416 45.784,45.596c0,12.006 -4.669,22.925 -12.287,31.067c-8.36,8.938 -20.271,14.529 -33.497,14.529c-37.191,0 -69.2,-22.08 -83.538,-53.791c-2.113,-4.673 -3.843,-9.552 -5.149,-14.605c-1.882,-7.285 -2.886,-14.922 -2.886,-22.796c0,-10.956 1.947,-21.459 5.505,-31.189c0.162,-0.446 0.335,-0.89 0.504,-1.334c0.062,-0.295 0.098,-0.6 0.098,-0.915c0,-2.517 -2.052,-4.558 -4.58,-4.558l-92.935,0" style="fill:#ffcd01;"/><path d="M314.45,4.598c2.856,10.654 4.384,21.848 4.384,33.398c0,39.068 -17.417,74.084 -44.936,97.773c-6.875,5.186 -12.744,10.318 -24.226,16.397c20.817,-19.573 31.011,-42.524 31.011,-68.573c0,-7.873 -1.004,-15.512 -2.887,-22.8c1.883,-7.286 2.887,-14.924 2.887,-22.797c0,-11.23 -2.043,-21.981 -5.774,-31.917c-0.169,-0.477 -0.243,-0.987 -0.243,-1.52c0,-2.518 2.049,-4.558 4.576,-4.559l29.296,0c2.805,0.001 5.2,2.032 5.912,4.598" style="fill:#ffcd01;"/><path d="M28.485,185.727l-5.38,5.852l-7.078,0l-5.148,-5.852l0,-2.218l5.673,0l3.277,2.218l3.217,-2.218l5.439,0l0,2.218Z" style="fill:#11377d;fill-rule:nonzero;"/><path d="M0.117,214.344c0,-13.393 8.422,-21.234 21.058,-21.234c5.731,0 9.239,1.166 12.281,2.922l0,7.781l-4.328,0c-1.521,-1.403 -3.977,-2.689 -7.663,-2.689c-6.199,0 -9.884,4.152 -9.884,12.808c0,9.358 3.216,13.337 9.359,13.337c4.387,0 6.902,-1.636 8.892,-3.568l3.977,0l0,7.426c-3.102,2.283 -7.487,3.981 -13.571,3.981c-12.286,0 -20.121,-7.486 -20.121,-20.764" style="fill:#11377d;fill-rule:nonzero;"/><path d="M46.199,221.479c0.528,5.202 2.982,6.552 7.251,6.552c3.45,0 6.028,-0.996 7.84,-2.284l3.275,0l0,6.256c-2.691,1.521 -6.318,3.044 -12.751,3.044c-10.706,0 -16.262,-5.964 -16.262,-15.675c0,-9.884 6.433,-16.087 15.735,-16.087c9.593,0 14.507,5.095 14.507,15.501c0,1.227 -0.117,2.339 -0.117,2.693l-19.478,0Zm0.056,-5.497l9.594,0c-0.175,-4.742 -1.757,-6.261 -4.562,-6.261c-2.395,0 -4.445,1.228 -5.032,6.261" style="fill:#11377d;fill-rule:nonzero;"/><path d="M68.461,232.532l0,-6.899l3.569,0c1.228,1.109 3.803,2.28 7.135,2.28c2.808,0 4.563,-0.645 4.563,-2.222c0,-1.64 -1.054,-2.168 -5.324,-2.748c-6.548,-0.822 -10.237,-3.104 -10.237,-9.538c0,-6.724 5.265,-10.057 12.987,-10.057c4.91,0 7.78,0.815 10.413,2.044l0,6.788l-3.333,0c-1.404,-0.94 -3.687,-1.871 -6.787,-1.871c-2.924,0 -4.035,0.757 -4.035,2.218c0,1.291 1.343,1.933 5.262,2.399c7.197,0.879 10.647,3.04 10.647,9.597c0,6.547 -4.329,10.469 -13.744,10.469c-5.385,0 -8.603,-1.172 -11.116,-2.46" style="fill:#11377d;fill-rule:nonzero;"/><path d="M106.677,215.221l9.593,-11.466l8.773,0l0,2.515l-8.481,9.649l9.652,16.142l0,2.519l-9.886,0l-7.135,-11.991l-2.516,2.749l0,9.242l-10.529,0l0,-41.185l6.667,0c3.22,0 3.862,0.823 3.862,5.5l0,16.326Z" style="fill:#11377d;fill-rule:nonzero;"/><path d="M145.568,231.655c-2.163,2.398 -5.03,3.336 -8.83,3.336c-5.441,0 -9.769,-3.101 -9.769,-9.184c0,-6.493 4.969,-9.594 12.106,-9.594c2.341,0 4.154,0.233 5.91,0.588l0,-2.107c0,-2.692 -1.405,-3.918 -5.207,-3.918c-3.04,0 -5.555,0.875 -7.312,2.045l-3.159,0l0,-7.077c2.867,-1.229 7.019,-2.455 12.519,-2.455c9.183,0 13.684,3.04 13.684,10.641l0,20.651l-5.73,0c-2.457,0 -3.626,-0.875 -4.212,-2.926m-0.583,-9.943c-1.055,-0.178 -2.282,-0.296 -3.454,-0.296c-2.808,0 -4.56,1.115 -4.56,3.686c0,2.635 1.637,3.745 3.919,3.745c1.578,0 2.983,-0.756 4.095,-1.697l0,-5.438Zm-6.262,-19.945l0,-1.931l1.933,-6.378l10.117,0l0,2.52l-5.906,5.789l-6.144,0Z" style="fill:#11377d;fill-rule:nonzero;"/><path d="M184.208,232.124l0,11.932l-10.529,0l0,-40.3l7.313,0c1.579,0 2.515,0.583 2.928,3.332c2.274,-2.162 5.259,-3.8 9.469,-3.8c5.852,0 11.643,3.8 11.643,15.034c0,11.758 -6.437,15.964 -13.274,15.964c-3.335,0 -5.735,-0.762 -7.55,-2.162m0,-20.006l0,14.158c1.173,0.816 2.516,1.231 4.27,1.231c3.217,0 5.907,-1.467 5.907,-8.251c0,-6.613 -2.572,-8.128 -5.733,-8.128c-1.285,0 -3.041,0.406 -4.444,0.99" style="fill:#11377d;fill-rule:nonzero;"/><path d="M207.361,219.314c0,-9.887 7.133,-16.03 16.437,-16.03c9.239,0 16.377,6.143 16.377,16.03c0,9.826 -7.138,15.732 -16.377,15.732c-9.304,0 -16.437,-5.906 -16.437,-15.732m22.17,0.118c0,-6.144 -2.338,-8.951 -5.733,-8.951c-3.453,0 -5.793,2.807 -5.793,8.951c0,6.081 2.34,8.717 5.793,8.717c3.395,0 5.733,-2.636 5.733,-8.717" style="fill:#11377d;fill-rule:nonzero;"/><path d="M242.389,232.532l0,-6.899l3.568,0c1.228,1.109 3.802,2.28 7.137,2.28c2.803,0 4.562,-0.645 4.562,-2.222c0,-1.64 -1.053,-2.168 -5.326,-2.748c-6.55,-0.822 -10.236,-3.104 -10.236,-9.538c0,-6.724 5.267,-10.057 12.987,-10.057c4.915,0 7.779,0.815 10.412,2.044l0,6.788l-3.338,0c-1.398,-0.94 -3.682,-1.871 -6.783,-1.871c-2.925,0 -4.032,0.757 -4.032,2.218c0,1.291 1.34,1.933 5.263,2.399c7.198,0.879 10.646,3.04 10.646,9.597c0,6.547 -4.331,10.469 -13.75,10.469c-5.378,0 -8.596,-1.172 -11.11,-2.46m21.293,-36.85l-5.384,6.086l-7.078,0l-5.144,-6.086l0,-2.223l5.67,0l3.274,2.459l3.22,-2.459l5.442,0l0,2.223Z" style="fill:#11377d;fill-rule:nonzero;"/><path d="M268.64,203.756l3.334,0l0,-7.839l10.531,0l0,7.839l5.731,0l0,6.785l-5.731,0l0,14.036c0,2.752 1.052,3.629 3.805,3.629l2.042,0l0,6.08c-1.404,0.41 -3.39,0.823 -6.023,0.823c-6.317,0 -10.355,-2.227 -10.355,-8.952l0,-15.616l-3.334,0l0,-6.785Z" 
style="fill:#11377d;fill-rule:nonzero;"/><path d="M309.058,231.655c-2.171,2.398 -5.033,3.336 -8.837,3.336c-5.434,0 -9.766,-3.101 -9.766,-9.184c0,-6.493 4.97,-9.594 12.108,-9.594c2.338,0 4.152,0.233 5.906,0.588l0,-2.107c0,-2.692 -1.4,-3.918 -5.202,-3.918c-3.046,0 -5.559,0.875 -7.315,2.045l-3.159,0l0,-7.077c2.87,-1.229 7.022,-2.455 12.519,-2.455c9.184,0 13.688,3.04 13.688,10.641l0,20.651l-5.73,0c-2.457,0 -3.629,-0.875 -4.212,-2.926m-0.589,-4.505l0,-5.438c-1.049,-0.178 -2.279,-0.296 -3.448,-0.296c-2.808,0 -4.563,1.115 -4.563,3.686c0,2.635 1.638,3.745 3.922,3.745c1.578,0 2.977,-0.756 4.089,-1.697" style="fill:#11377d;fill-rule:nonzero;"/></g></svg>