<?xml version="1.0" encoding="UTF-8" standalone="no"?><!DOCTYPE svg PUBLIC "-//W3C//DTD SVG 1.1//EN" "http://www.w3.org/Graphics/SVG/1.1/DTD/svg11.dtd"><svg width="100%" height="100%" viewBox="0 0 1437 308" version="1.1" xmlns="http://www.w3.org/2000/svg" xmlns:xlink="http://www.w3.org/1999/xlink" xml:space="preserve" xmlns:serif="http://www.serif.com/" style="fill-rule:evenodd;clip-rule:evenodd;stroke-linejoin:round;stroke-miterlimit:2;"><path d="M1322.59,154.478l-14.636,50.754l-273.563,0l57.581,-200.057l106.686,0l-42.945,149.303l166.877,0Z" style="fill:#00539b;fill-rule:nonzero;"/><path d="M586.478,5.176l-206.556,0l-57.232,200.037l106.655,0l20.838,-73.506l102.142,0c58.215,0 111.251,-25.679 121.343,-60.825c8.433,-28.626 -16.939,-65.706 -87.19,-65.706m-48.154,88.489l-77.087,0l14.645,-50.437l76.443,0c13.981,0 27.01,11.391 22.772,25.372c-3.592,13.008 -14.318,23.427 -36.773,25.065" style="fill:#00539b;fill-rule:nonzero;"/><path d="M942.323,5.176l-206.556,0l-37.953,132.627l-19.29,67.41l106.697,0l21.134,-73.506l102.143,0c57.918,0 111.24,-25.679 121.332,-60.825c8.136,-28.626 -17.235,-65.706 -87.507,-65.706m-48.144,88.489l-77.087,0l14.645,-50.437l76.761,0c14.001,0 26.681,11.391 22.772,25.372c-3.9,13.008 -14.656,23.427 -37.091,25.065" style="fill:#00539b;fill-rule:nonzero;"/><path d="M11.381,305.41l-11.381,0l15.608,-54.315l24.727,0c10.736,0 14.963,6.816 12.026,17.225c-1.628,5.199 -7.799,17.573 -22.435,17.573l-13.018,0l-5.527,19.517Zm18.873,-28.954c8.454,0 10.081,-6.171 10.736,-8.453c1.617,-5.527 -0.655,-7.482 -7.819,-7.482l-9.099,0l-4.565,15.935l10.747,0Z" style="fill:#00539b;fill-rule:nonzero;"/><path d="M63.424,251.089l27.655,0c14.297,0 13.98,10.746 12.691,15.29c-1.628,6.182 -6.192,11.054 -12.047,13.009c3.91,1.954 5.855,3.571 2.927,13.99c-2.282,7.809 -2.927,9.744 -0.644,10.747l-0.645,1.289l-12.374,0c0,-2.609 0.328,-5.199 1.955,-11.063c1.955,-7.165 2.272,-10.092 -6.172,-10.092l-11.718,0l-6.182,21.155l-11.054,0l15.608,-54.325Zm17.563,23.744c6.182,0 9.436,-1.934 11.064,-7.144c0.972,-2.947 0.655,-7.143 -5.854,-7.143l-14.319,0l-4.227,14.287l13.336,0Z" style="fill:#00539b;fill-rule:nonzero;"/><path d="M139.865,249.459c7.154,0 25.372,3.255 17.89,28.954c-7.481,25.362 -27.326,28.616 -34.48,28.616c-7.154,0 -25.362,-3.254 -17.901,-28.616c7.492,-25.699 27.337,-28.954 34.491,-28.954m-13.653,47.827c6.172,0 15.936,-3.91 20.162,-18.873c4.227,-15.28 -3.244,-19.19 -9.426,-19.19c-6.192,0 -15.945,3.91 -20.172,19.19c-4.237,14.963 3.244,18.873 9.436,18.873" style="fill:#00539b;fill-rule:nonzero;"/><path d="M174.342,282.642l24.092,0l2.569,-9.753l-24.041,0l3.562,-12.354l27.664,0l2.579,-9.436l-38.697,0l-15.618,54.315l11.391,0l6.499,-22.772Z" style="fill:#00539b;fill-rule:nonzero;"/><path d="M255.659,251.089l-39.997,0l-15.628,54.325l41.317,0l2.938,-9.426l-30.264,0l3.899,-14.328l26.682,0l2.927,-9.437l-26.671,0l3.254,-11.698l28.944,0l2.599,-9.436Z" style="fill:#00539b;fill-rule:nonzero;"/><path d="M260.867,288.829c-0.645,2.927 -0.645,8.781 9.119,8.781c5.517,0 11.698,-1.299 13.315,-7.164c1.3,-4.227 -2.579,-5.199 -7.798,-6.837l-5.517,-1.289c-8.137,-1.965 -16.273,-3.91 -12.691,-15.946c1.627,-6.182 8.116,-16.918 25.689,-16.918c16.908,0 18.228,11.084 16.273,17.573l-11.053,0c0.634,-2.282 1.3,-8.126 -8.782,-8.126c-4.257,0 -9.774,1.637 -11.391,6.509c-0.982,4.207 2.272,5.199 4.217,5.844l12.353,3.255c6.837,1.617 13.019,4.871 10.092,14.625c-4.555,16.273 -21.79,17.901 -26.662,17.901c-19.845,0 -19.845,-11.719 -17.89,-18.208l10.726,0Z" style="fill:#00539b;fill-rule:nonzero;"/><path d="M309.012,288.829c-0.983,2.927 -0.983,8.781 9.109,8.781c5.189,0 11.698,-1.299 13.336,-7.164c1.289,-4.227 -2.6,-5.199 -8.147,-6.837l-5.189,-1.289c-8.464,-1.965 -16.263,-3.91 -12.691,-15.946c1.637,-6.182 7.819,-16.918 25.709,-16.918c16.58,0 17.891,11.084 16.253,17.573l-11.053,0c0.317,-2.282 0.972,-8.126 -8.782,-8.126c-4.247,0 -10.091,1.637 -11.401,6.509c-1.29,4.207 1.965,5.199 4.237,5.844l12.353,3.255c6.847,1.617 12.701,4.871 10.102,14.625c-4.892,16.273 -21.8,17.901 -26.692,17.901c-19.835,0 -20.152,-11.719 -18.218,-18.208l11.074,0Z" style="fill:#00539b;fill-rule:nonzero;"/><path d="M370.16,251.089l-11.391,0l-15.618,54.325l11.391,0l15.618,-54.325Z" style="fill:#00539b;fill-rule:nonzero;"/><path d="M402.364,249.459c7.154,0 25.044,3.255 17.89,28.954c-7.472,25.362 -27.327,28.616 -34.471,28.616c-7.164,0 -25.382,-3.254 -17.89,-28.616c7.144,-25.699 26.989,-28.954 34.471,-28.954m-13.981,47.827c6.182,0 15.935,-3.91 20.49,-18.873c4.227,-15.28 -3.255,-19.19 -9.426,-19.19c-6.203,0 -15.936,3.91 -20.173,19.19c-4.565,14.963 3.255,18.873 9.109,18.873" style="fill:#00539b;fill-rule:nonzero;"/><path d="M467.75,251.089l10.409,0l-15.608,54.325l-11.392,0l-11.063,-38.707l-11.054,38.707l-10.736,0l15.618,-54.325l12.036,0l10.726,37.745l11.064,-37.745Z" style="fill:#00539b;fill-rule:nonzero;"/><path d="M478.804,305.41l-12.036,0l35.126,-54.315l13.018,0l3.572,54.315l-12.353,0l-0.317,-11.063l-20.173,0l-6.837,11.063Zm12.681,-20.49l13.981,0l-0.635,-21.472l-0.338,0l-13.008,21.472Z" style="fill:#00539b;fill-rule:nonzero;"/><path d="M550.047,251.089l-11.391,0l-15.618,54.325l38.38,0l2.937,-9.753l-26.999,0l12.691,-44.572Z" style="fill:#00539b;fill-rule:nonzero;"/><path d="M620.96,305.41l-11.391,0l15.618,-54.315l24.707,0c10.746,0 14.973,6.816 12.046,17.225c-1.627,5.199 -7.809,17.573 -22.445,17.573l-13.008,0l-5.527,19.517Zm18.863,-28.954c8.454,0 10.071,-6.171 10.736,-8.453c1.627,-5.527 -0.665,-7.482 -7.809,-7.482l-9.109,0l-4.555,15.935l10.737,0Z" style="fill:#00539b;fill-rule:nonzero;"/><path d="M665.187,305.41l-12.036,0l35.136,-54.315l13.019,0l3.582,54.315l-12.374,0l-0.317,-11.063l-20.163,0l-6.847,11.063Zm12.691,-20.49l13.981,0l-0.645,-21.472l-13.336,21.472Z" style="fill:#00539b;fill-rule:nonzero;"/><path d="M725.046,251.089l27.634,0c14.645,0 13.99,10.746 12.691,15.29c-1.638,6.182 -6.162,11.054 -12.026,13.009c3.899,1.954 5.864,3.571 2.917,13.99c-2.262,7.809 -2.917,9.744 -0.645,10.747l-0.338,1.289l-12.66,0c0,-2.609 0.307,-5.199 1.944,-11.063c1.955,-7.165 2.58,-10.092 -5.854,-10.092l-12.036,0l-5.854,21.155l-11.391,0l15.618,-54.325Zm17.88,23.744c5.854,0 9.436,-1.934 10.736,-7.144c0.983,-2.947 0.983,-7.143 -5.844,-7.143l-14.308,0l-3.92,14.287l13.336,0Z" style="fill:#00539b;fill-rule:nonzero;"/><path d="M818.408,268.979c1.607,-8.137 -1.638,-19.518 -17.89,-19.518c-14.319,0 -27.972,9.764 -33.509,28.954c-5.209,18.873 2.262,28.616 16.918,28.616c13.653,0 23.724,-8.453 29.261,-20.162l-11.391,0c-3.234,6.509 -8.761,10.081 -14.953,10.081c-9.754,0 -11.053,-8.761 -8.137,-18.535c4.227,-15.28 13.357,-18.872 18.873,-18.872c9.437,0 9.437,6.192 9.437,9.436l11.391,0" style="fill:#00539b;fill-rule:nonzero;"/><path d="M866.863,260.533l-28.944,0l-3.254,11.698l26.354,0l-2.61,9.437l-26.672,0l-3.909,14.298l30.254,0l-2.938,9.446l-41.297,0l15.608,-54.325l40.008,0l-2.6,9.446Z" style="fill:#00539b;fill-rule:nonzero;"/><path d="M875.978,295.645l27.009,0l-2.62,9.764l-38.38,0l15.608,-54.336l11.053,0l-12.67,44.572Z" style="fill:#00539b;fill-rule:nonzero;"/><path d="M962.493,295.645l27.009,0l-2.937,9.764l-38.38,0l15.608,-54.336l11.381,0l-12.681,44.572Z" style="fill:#00539b;fill-rule:nonzero;"/><path d="M1031.78,249.459c7.174,0 25.044,3.255 17.91,28.954c-7.502,25.362 -27.347,28.616 -34.501,28.616c-7.154,0 -25.372,-3.254 -17.89,-28.616c7.174,-25.699 27.337,-28.954 34.481,-28.954m-13.654,47.827c6.182,0 15.598,-3.91 20.173,-18.873c4.217,-15.28 -3.265,-19.19 -9.436,-19.19c-6.203,0 -15.936,3.91 -20.173,19.19c-4.575,14.963 3.244,18.873 9.436,18.873" style="fill:#00539b;fill-rule:nonzero;"/><path d="M1079.59,285.251l12.691,0c-5.537,11.064 -13.991,12.036 -16.58,12.036c-7.809,0 -14.646,-3.91 -10.419,-18.873c3.91,-13.673 13.008,-19.517 21.145,-19.517c8.126,0 10.091,6.836 9.436,9.119l11.391,0c1.617,-7.502 -1.965,-18.556 -18.893,-18.556c-18.197,0 -30.571,13.991 -34.777,28.954c-5.537,19.19 3.879,28.616 16.907,28.616c10.071,0 15.608,-4.871 19.518,-8.453l-0.972,6.836l7.481,0l8.454,-29.281l-22.772,0l-2.61,9.119Z" style="fill:#00539b;fill-rule:nonzero;"/><path d="M1130.67,251.089l-11.391,0l-15.608,54.325l11.391,0l15.608,-54.325Z" style="fill:#00539b;fill-rule:nonzero;"/><path d="M1135.86,288.829c-0.634,2.927 -0.634,8.781 9.109,8.781c5.547,0 11.719,-1.299 13.336,-7.164c1.3,-4.227 -2.262,-5.199 -7.789,-6.837l-5.547,-1.289c-8.116,-1.965 -15.945,-3.91 -12.681,-15.946c1.935,-6.182 8.127,-16.918 25.7,-16.918c16.918,0 18.217,11.084 16.252,17.573l-10.715,0c0.317,-2.282 0.962,-8.126 -9.109,-8.126c-4.248,0 -9.764,1.637 -11.064,6.509c-1.31,4.207 1.945,5.199 3.92,5.844l12.333,3.255c6.826,1.617 13.018,4.871 10.091,14.625c-4.554,16.273 -21.789,17.901 -26.661,17.901c-19.845,0 -19.845,-11.719 -17.89,-18.208l10.715,0Z" style="fill:#00539b;fill-rule:nonzero;"/><path d="M1194.1,305.41l-11.402,0l13.019,-44.889l-16.591,0l2.928,-9.426l44.244,0l-2.599,9.426l-16.591,0l-13.008,44.889Z" style="fill:#00539b;fill-rule:nonzero;"/><path d="M1225.32,305.41l-11.371,0l15.608,-54.315l11.381,0l-15.618,54.315Z" style="fill:#00539b;fill-rule:nonzero;"/><path d="M1289.73,268.979c1.944,-8.137 -1.638,-19.518 -17.891,-19.518c-13.99,0 -27.971,9.764 -33.18,28.954c-5.527,18.873 1.954,28.616 16.58,28.616c13.663,0 23.754,-8.453 29.598,-20.162l-11.38,0c-3.583,6.509 -8.772,10.081 -15.291,10.081c-9.426,0 -10.726,-8.761 -8.126,-18.535c4.554,-15.28 13.673,-18.872 19.19,-18.872c9.436,0 9.119,6.192 9.119,9.436l11.381,0Z" style="fill:#00539b;fill-rule:nonzero;"/><path d="M268.354,205.232l15.935,-55.288l-240.055,0l-15.945,55.288l240.065,0Z" style="fill:#00539b;fill-rule:nonzero;"/><path d="M306.734,71.862l10.081,-34.798l-240.372,0l-9.764,34.798l240.055,0Z" style="fill:#00539b;fill-rule:nonzero;"/><path d="M288.842,133.669l13.336,-45.872l-240.054,0l-13.336,45.872l240.054,0Z" style="fill:#00539b;fill-rule:nonzero;"/><path d="M321.365,21.117l4.555,-15.945l-240.055,0l-4.554,15.945l240.054,0Z" style="fill:#00539b;fill-rule:nonzero;"/><path d="M1390.89,86.207l0.021,0l0,3.858l-0.021,0l0,-3.858Zm0.011,0c11.34,0 21.677,-4.596 29.168,-12.005l2.713,2.712c-8.198,8.116 -19.508,13.131 -31.881,13.141l0,-3.848Zm29.168,-12.005c7.503,-7.421 12.159,-17.676 12.159,-29.006l3.859,0c-0.021,12.405 -5.097,23.612 -13.305,31.718l-2.713,-2.712Zm12.159,-29.016l3.838,0l0,0.01l-3.838,0l0,-0.01Zm0,0l3.838,0l0,0.01l-3.838,0l0,-0.01Zm0,0c0,-11.504 -4.656,-21.841 -12.169,-29.292l2.712,-2.742c8.219,8.177 13.316,19.466 13.316,32.034l-3.859,0Zm-12.169,-29.292c-7.481,-7.461 -17.818,-12.036 -29.158,-12.036l0,-3.858c12.373,0.01 23.683,5.005 31.87,13.152l-2.712,2.742Zm-29.158,-12.036l-0.021,0l0,-3.858l0.021,0l0,3.858Zm-0.011,0l0,-3.858l0,3.858Zm0,0c-11.514,0 -21.851,4.575 -29.302,12.036l-2.722,-2.722c8.157,-8.167 19.446,-13.172 32.024,-13.172l0,3.858Zm-29.302,12.036c-7.44,7.451 -12.046,17.788 -12.046,29.282l-3.848,0c0,-12.558 5.015,-23.847 13.172,-32.004l2.722,2.722Zm-12.046,29.292l-3.858,0l0,-0.01l3.858,0l0,0.01Zm0,0.01l-3.858,0l0,-0.01l3.858,0l0,0.01Zm0,0c0,11.33 4.606,21.585 12.046,29.006l-2.701,2.722c-8.168,-8.116 -13.193,-19.333 -13.193,-31.728l3.848,0Zm12.046,29.006c7.451,7.409 17.788,12.005 29.302,12.005l0,3.848c-12.568,-0.01 -23.867,-5.025 -32.003,-13.131l2.701,-2.722Zm29.302,12.005l0,3.848" style="fill:#00539b;fill-rule:nonzero;"/><path d="M1369.42,68.603l-7.144,0l16.253,-50.416l25.054,0c9.099,0 17.225,2.937 13.653,13.663c-2.261,7.472 -7.471,10.082 -11.381,12.047c2.6,1.279 5.189,2.589 3.245,9.426l-2.282,9.098c-0.963,2.938 -0.963,3.91 0.982,5.21l-0.338,0.972l-9.078,0c0,-3.244 2.262,-10.726 2.907,-12.681c1.31,-3.899 1.965,-8.781 -6.827,-8.781l-17.869,0l-7.175,21.462Zm9.109,-27.316l16.918,0c5.516,0 11.371,-1.31 13.991,-8.792c2.579,-7.809 -3.583,-8.454 -7.175,-8.454l-18.197,0l-5.537,17.246Z" style="fill:#00539b;fill-rule:nonzero;"/></svg>