<svg xmlns="http://www.w3.org/2000/svg" x="0px" y="0px" viewBox="0 0 277.5 60.5">
   <path fill="#B9191B" d="M0 0h60.5v60.5H0z"/>
   <path fill="#fff" d="M32.2 26.8l-1 .5-1-.5L16.8 20l6.4-2.5L37 24.4l-4.8 2.4zm13.6-6.7l-4.9 2.4-14-6.4 4.4-1.7 14.5 5.7z"/>
   <path fill="#fff" d="M31.8 10l17.8 7-2.5 2-15.8-6.2L15.5 19 13 17l17.7-7h1.1zm15.7 9.6l2.9-1.2-2.2 18.5-.4.8-15.6 14.2-.5-3.3 13.9-12.7 1.9-16.3zM14.8 37.7l-.4-.8-2.2-18.4 2.9 1.2 2 16.4 13.8 12.7-.5 3.2-15.6-14.3z"/>
   <path fill="#A9ABAE" d="M41.4 23l4.4-2.7-1.7 14.8-12.7 11.6.7-17.9 5.6-3.5-.4 8.8 3.5-2.5z"/>
   <path fill="#D5D7D8" d="M30.5 28.8l.7 17.9-12.7-11.6-1.7-14.8z"/>
   <path fill="#B9191B" d="M234.2 35.8a10.5 10.5 0 00-4.7-.7c-.9.1-1.6.4-2.1.9-.6.4-.9 1.1-1 2-.1 1.1.2 1.9.7 2.5.5.6 1.2 1 2 1.2s1.7.2 2.6.2 1.8-.2 2.6-.5l-.1-5.6zm-4-12.7c1.5 0 2.8.2 4.1.7 1.3.5 2.3 1.3 3.2 2.4a6.5 6.5 0 011.2 4v14c-1.3.5-2.7.9-4.2 1.2-1.5.2-3 .4-4.5.3-1.5-.1-2.8-.4-4.1-.9a7 7 0 01-2.9-2.5 8.3 8.3 0 01.1-8.7 6 6 0 013.1-2.3 9 9 0 014-.6c1.4.1 2.8.4 3.9.9v-1.3c-.2-1-.7-1.8-1.4-2.3-.7-.6-1.5-.9-2.5-.9-.9-.1-1.9 0-2.8.3s-1.7.8-2.4 1.6l-2.6-2.5c1.2-1.3 2.5-2.2 3.7-2.7 1.4-.5 2.8-.7 4.1-.7zm24.3.1c1.4 0 2.7.2 3.9.8 1.1.5 2 1.2 2.7 2.2l.2.2-1.2.8a5 5 0 00-2.4-1.9 8.8 8.8 0 00-6.3 0c-.9.4-1.7.9-2.3 1.7s-.9 1.7-.9 2.9V39c0 1.2.3 2.2.9 2.9.6.7 1.4 1.3 2.3 1.7a7.7 7.7 0 007.5-.9c.6-.5 1.1-1.1 1.4-1.8l1.4.7c-.2.4-.4.9-.7 1.2l-.3.3-.7.7c-.7.6-1.6 1.1-2.6 1.4a10 10 0 01-6.7-.2 6.3 6.3 0 01-4.1-5.9V30c0-1.5.4-2.7 1.2-3.7.7-1 1.7-1.7 2.9-2.2 1.3-.7 2.5-.9 3.8-.9zm22.3.2l.7 1.1-13.8 19.3h13.6v1.5h-14.9l-.8-1.2 13.8-19.2h-13v-1.4l14.4-.1zm-60.6.7c1.2.6 2.3 1.4 3 2.5a7.7 7.7 0 011.2 4.2v14.4h-4.5V30.9c-.1-.9-.4-1.6-1-2.2-.6-.6-1.3-.9-2.1-1.1a7 7 0 00-2.5-.1c-.9.1-1.6.4-2.1.7v17h-4.5V24.7l1.2-.2 2.2-.7c.9-.3 2.2-.5 3.7-.6h1.5c1.3 0 2.6.4 3.9.9zm27 18.1c.4 0 .8.1 1.1.4s.4.7.4 1.1c0 .4-.1.8-.4 1.1-.3.3-.7.5-1.1.5-.4 0-.9-.2-1.2-.5-.3-.3-.4-.7-.4-1.1 0-.4.1-.9.4-1.1.3-.3.8-.4 1.2-.4zm-40.4-17.5l-7.2 20.5h-4.8l-7.2-20.5c1.6 0 3.1-.4 4.4-1.3l4.4 12.7.7 4.3h.3l.7-4.3 4.4-12.7c1.3.9 2.7 1.3 4.3 1.3zm-74.4 8.5c1 .4 2 1.1 2.6 2 .7.9 1 2.1 1.1 3.7a6.4 6.4 0 01-4.7 6.4c-1.3.4-2.8.6-4.3.4a9.4 9.4 0 01-7.2-5.1l3.4-2.2c.6 1 1.3 1.7 2.1 2.2.9.6 1.8.8 2.6.9.9.1 1.7-.1 2.3-.5.6-.4 1-1.1 1-1.9 0-.6-.2-.9-.6-1.2-.4-.3-.8-.6-1.3-.7l-1.5-.4-2.5-.6a8 8 0 01-4.5-3 5 5 0 01-.7-2.6v-.1-.4c0-1.6.4-2.9 1.3-3.8a7 7 0 013.1-2.2 12 12 0 013.7-.6 9.6 9.6 0 017 3.1l-2.8 3a6.4 6.4 0 00-2.2-1.4 8 8 0 00-2.5-.5c-.8 0-1.5.2-2.1.5-.6.3-.9.8-1 1.5 0 .6.1 1.1.6 1.6a5.8 5.8 0 003.3 1.3c1.6-.2 2.7.1 3.8.6zm9.7-17c.6.6.8 1.2.8 2.1 0 .8-.3 1.5-.8 2-.6.6-1.2.9-2.1.9-.8 0-1.5-.3-2-.9a3 3 0 01-.9-2c0-.9.3-1.5.9-2.1a3 3 0 012-.9c.8.1 1.6.4 2.1.9zM149.8 41V15.4h4.6v16.8l2.1-2.4v-.1l5.6-6.3h5.7l-9 10 9 11.7h-5.4l-6.8-8.9-1.3 1.3v7.6l-4.4.2h-.7c-2.9-.2-5-.9-6.2-2a7.2 7.2 0 01-2.1-5.5V15.4h4.6v22.5c0 .9.3 1.7.9 2.2.4.6 1.7.9 3.4.9zm29.3-10.4c0-.7-.2-1.2-.6-1.7a4 4 0 00-1.5-1l-1.8-.3-1 .1-.9.2a4 4 0 00-1.5 1c-.4.4-.6 1-.6 1.7v7.6c0 .7.2 1.3.6 1.8.4.5.9.9 1.5 1.1l.9.2 1 .1a4 4 0 001.8-.4c.6-.2 1-.6 1.5-1.1.4-.5.6-1.1.6-1.8v-7.5zm.2-6.7c1.3.6 2.3 1.4 3.1 2.5.4.6.7 1.2.9 1.9.2.7.3 1.5.3 2.3v7.6c0 1.7-.4 3.1-1.3 4.2a7.6 7.6 0 01-3.1 2.5 11 11 0 01-4 .9l-1-.1a8.7 8.7 0 01-4.9-1.9 5 5 0 01-1.4-1.5 7.7 7.7 0 01-1.3-4.2v-7.6c0-1.7.4-3 1.3-4.2l1.1-1.2c.6-.6 1.3-1 2-1.3 1-.4 2-.7 3.1-.8l1-.1c1.6.1 2.9.4 4.2 1zm-40.9-.5v21.8h-4.6V23.4h4.6zm-30.2-1.3h-4.5l2.9-4.9h5.6l-4 4.9zm2.1 19.2v-5.6a10.5 10.5 0 00-4.7-.7c-.9.1-1.6.4-2.1.9-.4.3-.7.7-.9 1.2l-.2.8c0 .6 0 1.1.2 1.6.1.4.3.7.5.9.5.6 1.2 1 2 1.2.8.2 1.7.2 2.6.2a8 8 0 002.6-.5zm0-9.5v-1.3c-.2-1-.7-1.8-1.4-2.3-.7-.6-1.5-.9-2.5-.9-.9-.1-1.9 0-2.8.3l-1 .5c-.5.3-1 .6-1.4 1.1l-2.6-2.5c1.2-1.3 2.5-2.2 3.7-2.7l.2-.1c1.2-.4 2.5-.7 3.8-.6 1.5 0 2.8.2 4.1.7 1.3.5 2.3 1.3 3.2 2.4a6.5 6.5 0 011.2 4v14c-1.3.5-2.7.9-4.2 1.2-1.5.2-3 .4-4.5.3a9.5 9.5 0 01-3.5-.7l-.6-.2a6.2 6.2 0 01-2.7-2.1l-.9-1.6v4h-21L76.2 42l16.3-21.8H77v-4.8h20.6l1.5 3.2-16.4 21.9h15.5a7.7 7.7 0 01.9-6.8 6 6 0 013.1-2.3l.2-.1c1.2-.4 2.5-.6 3.7-.5 1.6.2 2.9.4 4.2 1z"/>
</svg>
